<?xml version="1.0" encoding="UTF-8"?>
<svg id="Layer_2" data-name="Layer 2" xmlns="http://www.w3.org/2000/svg" xmlns:xlink="http://www.w3.org/1999/xlink" viewBox="0 0 1734.71 1291.54">
  <defs>
    <style>
      .cls-1 {
        stroke: #e28569;
      }

      .cls-1, .cls-2, .cls-3, .cls-4, .cls-5, .cls-6, .cls-7, .cls-8, .cls-9, .cls-10, .cls-11, .cls-12, .cls-13, .cls-14, .cls-15, .cls-16, .cls-17, .cls-18, .cls-19 {
        fill: none;
      }

      .cls-1, .cls-3, .cls-4, .cls-20 {
        stroke-miterlimit: 10;
      }

      .cls-1, .cls-4 {
        stroke-width: 4px;
      }

      .cls-21 {
        fill: #5e361c;
      }

      .cls-22 {
        fill: #de9b71;
      }

      .cls-23, .cls-24 {
        fill: #fff;
      }

      .cls-2 {
        stroke: #ee7c34;
      }

      .cls-2, .cls-5, .cls-6, .cls-7, .cls-8, .cls-9, .cls-10, .cls-11, .cls-24, .cls-25, .cls-12, .cls-13, .cls-26, .cls-15, .cls-16, .cls-17, .cls-18, .cls-27, .cls-19 {
        stroke-linecap: round;
        stroke-linejoin: round;
      }

      .cls-2, .cls-24, .cls-25, .cls-26, .cls-27 {
        stroke-width: 2px;
      }

      .cls-28 {
        fill: #301b0e;
      }

      .cls-3 {
        stroke: #6b3f1a;
      }

      .cls-3, .cls-18 {
        stroke-width: .75px;
      }

      .cls-4 {
        stroke: #d6795e;
      }

      .cls-29 {
        fill: #d36c54;
      }

      .cls-30 {
        fill: #422714;
      }

      .cls-31 {
        fill: #1c5a6b;
      }

      .cls-32 {
        fill: #363636;
      }

      .cls-5, .cls-18 {
        stroke: #bf8454;
      }

      .cls-33 {
        fill: #6e4e34;
      }

      .cls-6 {
        stroke: #301b0e;
      }

      .cls-7 {
        stroke: #a17a55;
      }

      .cls-34 {
        fill: #123a45;
      }

      .cls-35 {
        clip-path: url(#clippath-2);
      }

      .cls-36 {
        fill: #d1c3b5;
      }

      .cls-8 {
        stroke: #21697d;
      }

      .cls-9 {
        stroke: #bf7c52;
      }

      .cls-37 {
        fill: #dec1a2;
      }

      .cls-38 {
        fill: #89b3e0;
      }

      .cls-10 {
        stroke: #fff;
      }

      .cls-11 {
        stroke: #4a2b0c;
      }

      .cls-24, .cls-27 {
        stroke: #000;
      }

      .cls-39 {
        fill: #70553a;
      }

      .cls-40 {
        fill: #85acc9;
      }

      .cls-41 {
        fill: #ee5719;
      }

      .cls-42 {
        fill: #333;
      }

      .cls-43 {
        clip-path: url(#clippath-1);
      }

      .cls-44 {
        fill: #e6e6e6;
      }

      .cls-45 {
        fill: #874f21;
      }

      .cls-46 {
        fill: #ffbc82;
      }

      .cls-47 {
        fill: #382109;
      }

      .cls-25 {
        stroke: #946f50;
      }

      .cls-25, .cls-48 {
        fill: #73563e;
      }

      .cls-49 {
        fill: #174957;
      }

      .cls-50, .cls-26 {
        fill: #46789e;
      }

      .cls-12 {
        stroke: #b3d3f5;
      }

      .cls-51 {
        fill: #ffdebb;
      }

      .cls-52 {
        fill: #89b4d6;
      }

      .cls-53 {
        fill: #c76560;
      }

      .cls-54 {
        fill: #b8d7de;
      }

      .cls-20 {
        fill: #dedede;
        opacity: .5;
        stroke: #dedede;
      }

      .cls-13 {
        stroke: #56acc4;
      }

      .cls-55 {
        clip-path: url(#clippath);
      }

      .cls-56 {
        fill: #301c0f;
      }

      .cls-57 {
        fill: #c4593f;
      }

      .cls-58 {
        fill: #522f18;
      }

      .cls-59 {
        fill: #c9dcf2;
      }

      .cls-26 {
        stroke: #6397bf;
      }

      .cls-60 {
        fill: #ee7c34;
      }

      .cls-61 {
        fill: #dea87c;
      }

      .cls-15 {
        stroke: #2e1a0e;
      }

      .cls-62 {
        fill: #403b36;
      }

      .cls-63 {
        fill: #454545;
      }

      .cls-64 {
        fill: #cd493e;
      }

      .cls-16 {
        stroke: #454545;
        stroke-width: 8px;
      }

      .cls-17 {
        stroke: #6fa1c7;
      }

      .cls-65 {
        fill: #a17a55;
      }

      .cls-27 {
        fill: #787878;
      }

      .cls-66 {
        fill: #827970;
      }

      .cls-19 {
        stroke: #a1a1a1;
      }
    </style>
    <clipPath id="clippath">
      <path class="cls-14" d="M210.95,176.72C29.42,321.52-78.29,599.27,69.08,934.15c141.18,320.81,533.37,388.25,1059.63,346.09,325.27-26.06,580.41-335.21,604.13-673.58,20.82-297.05-133.62-508.11-399.65-565.44C1079.32-13.49,495.09-49.94,210.95,176.72Z"/>
    </clipPath>
    <clipPath id="clippath-1">
      <rect class="cls-14" x="293.86" y="548.14" width="701.02" height="402.36" rx="7.78" ry="7.78"/>
    </clipPath>
    <clipPath id="clippath-2">
      <rect class="cls-14" x="281.07" y="548.02" width="701.02" height="402.36" rx="7.78" ry="7.78"/>
    </clipPath>
  </defs>
  <g id="_11" data-name="11">
    <g class="cls-55">
      <rect class="cls-54" x="-55.45" y="-40.47" width="1858.56" height="1361.7"/>
      <path class="cls-51" d="M1803.11,1321.23H-55.45V796.62c386.44-195.8,1369.57-169.33,1858.56,0v524.61Z"/>
      <g>
        <path class="cls-20" d="M185.01,174.78c-65.46,14.51-30,87.83-30,87.83,0,0-53.64-24.44-80,7.64-32.45,39.48,47.27,62.63,47.27,62.63,0,0-89.04,54.17-20,102.34,53.64,37.42,156.94-50.41,156.94-50.41,0,0,15.6,71.49,73.98,51.93,90.84-30.43,22.73-115.12,22.73-115.12,0,0,131.19-16.24,85.67-91.76-45.11-74.82-143.75,5.49-143.75,5.49,0,0,1.53-85.93-112.83-60.58Z"/>
        <path class="cls-20" d="M1483.77,335.08c40.24-1.49,30.75,46.5,30.75,46.5,0,0,27.47-22.33,47.65-7.68,24.84,18.03-17.98,43.56-17.98,43.56,0,0,59.96,17.99,27.13,56.45-25.5,29.88-98.85-5.51-98.85-5.51,0,0,1.77,43.91-35.13,41.39-57.41-3.92-30.65-63.46-30.65-63.46,0,0-78.71,10.44-63.69-40.34,14.88-50.32,84.38-18.59,84.38-18.59,0,0-13.91-49.71,56.4-52.3Z"/>
        <path class="cls-20" d="M980.27,249.38c37.02,15.85,45.41-32.34,45.41-32.34,0,0,17.6,30.71,41.7,24.3,29.66-7.89-1.12-47.11-1.12-47.11,0,0,62.42,4.77,45.61-42.92-13.06-37.05-94.22-30.39-94.22-30.39,0,0,17.43-40.34-17.9-51.25-54.98-16.98-51.42,48.2-51.42,48.2,0,0-69.69-38.04-73.94,14.75-4.21,52.3,72.05,47.68,72.05,47.68,0,0-30.85,41.38,33.82,69.08Z"/>
      </g>
      <ellipse class="cls-37" cx="334.44" cy="1016.24" rx="64.49" ry="4.6"/>
      <ellipse class="cls-37" cx="635.97" cy="948.99" rx="364.12" ry="12.39"/>
      <g id="Person_2" data-name="Person 2">
        <path class="cls-22" d="M608.33,459.98s-20.26,36.67-29.11,48.52c-7.51,10.05-48.51,40.88-48.51,40.88,0,0-5.53-.88-8.21-2.97-3.58,6.12-5.49,13.09-9.55,15.68-8.96,.81-15.23-4.34-18.21-7.91-2.54-5.67,4.29-16.64,8.57-20.98,7.4-4.1,17.25-.49,17.25-.49,0,0,33.88-34.34,36.58-39.14,5.37-9.55,18.81-51.05,18.81-51.05h21.5l10.9,17.47Z"/>
        <g id="Clothes">
          <path class="cls-34" d="M653.8,359s12.12-.1,23.31,1.92c18.59,3.35,27.57,13.5,35.92,31.02,9.43,19.79,15.32,67.6,15.32,67.6l-27.15,27.84-10.95-41-7.13,22.66-55.26-25.21-19.52,19.64s-27.56-13.28-37.14-20.97c4.48-23.84,27.88-57.75,27.88-57.75l16.04-10.24s5.08-2.44,6.62-3.51c5.72-3.94,20.88-18.33,20.88-18.33l11.18,6.32Z"/>
          <path class="cls-52" d="M645.13,574.58l2.66-58.1s-45.11-79.12-47.29-93.05c-2.18-13.93-3.9-35.79-3.9-35.79,0,0,3.06-5.23,6.22-7.25,3.16-2.01,9.32-3.98,9.32-3.98,0,0,4.01,35.47,5.3,35.4,0,0,36.97-3.67,43.64-4.36,2.42-4.41,8.24-48.06,8.24-48.06l10.24,2.02-3.84,45.45s30.69,21.87,37.94,17.2c3.43-2.21,4.6-6.99,5.97-12.25,1.28,5.29,29.48,110.99,29.48,120.2s-7.19,27.61-5.75,43.72"/>
          <path class="cls-50" d="M649.3,588.9c5.95-36.39,80.44-44.99,80.44-44.99l16.54,32.82"/>
        </g>
        <line class="cls-17" x1="617.44" y1="411.82" x2="655.45" y2="408.04"/>
        <path class="cls-58" d="M647.67,336.33c4.79,3.96,20.07,.38,22.26-5.41,2.19-5.78,7.37-16.7,.43-22.62-6.93-5.92-8.2-12.35-19.98-8.24-11.78,4.11-5.22,10.41-7.55,18.93-2.33,8.52,1.04,14.2,4.83,17.34Z"/>
        <path class="cls-22" d="M679.56,451.71s-1.04,48.86-10.24,57.4c-9.19,8.54-75.7,44.67-75.7,44.67,0,0-11.63-6.47-15.4-3.61-4.23,3.2-4.08,5.64-3.83,10.64,.07,1.3-1.16,2.29-2.42,1.94-6.54-1.84-18.82-2.89-24.94-10.95-2.54-5.67,3.59-15.32,7.76-18.51,5.02-3.84,28.36,1.79,28.36,1.79,0,0,46.93-35.72,49.63-40.52,5.37-9.55,13.83-52.05,13.83-52.05h20.06l12.86,9.2Z"/>
        <path class="cls-22" d="M653.5,324.45s-2.5,12.69-1.28,21.78c1.21,9.01,5.74,13.17,5.74,13.17,0,0-19.87,34.25-34.26,19.61,0,0,2.24-30.21-3.81-35.34,4.4-8.62,33.6-19.22,33.6-19.22Z"/>
        <path class="cls-49" d="M664.55,380.58s7.18-19.36,17.98-17.83c23.1,3.26,32.51,33.46,26.06,65.51-3.36,16.69-8.32,32.6-21.11,48.46l-46.82-18.38,23.89-77.76Z"/>
        <path class="cls-22" d="M650.6,287.87l.5,15.05s10.27-8.25,18.24-.84c7.96,7.4-7.55,23.09-9.58,24.3-3.68,2.2-6.23,0-6.23,0,0,0-2.3,7.24-6.05,12.21-5.3,7.04-15.66,16.49-22.6,16.5-9.18,0-28.06-18.71-29.65-25.41-2.83-11.93-5.1-42.17-5.1-42.17h39.75l20.73,.37Z"/>
        <g id="Face">
          <path class="cls-47" d="M627.14,311.18c.07,1.98,1.58,2.78,3.4,2.72,1.82-.07,3.26-.99,3.18-2.96-.07-1.98-1.61-3.52-3.42-3.45s-3.23,1.73-3.15,3.7Z"/>
          <path class="cls-11" d="M638.09,309.55s-3.02-2.31-6.63-2.11c-3.61,.2-5.52,1.68-5.52,1.68"/>
          <path class="cls-11" d="M640.33,304.08s-3.8-3.97-7.27-3.96-7.76,2.69-7.76,2.69"/>
          <path class="cls-47" d="M606.06,311.95c-.07,1.98-1.35,2.79-2.88,2.73-1.53-.06-2.74-.97-2.67-2.94s1.38-3.53,2.91-3.47c1.53,.06,2.71,1.71,2.64,3.68Z"/>
          <path class="cls-11" d="M596.83,310.38s2.57-2.33,5.61-2.15,4.65,1.64,4.65,1.64"/>
          <path class="cls-11" d="M594.98,304.92s3.23-3.99,6.16-4.01,6.53,2.64,6.53,2.64"/>
          <path class="cls-11" d="M616.19,311.02s-4.24,11.83-3.21,14.58c.65,1.75,4.45,1.85,4.45,1.85"/>
          <path class="cls-11" d="M629.41,337.13s-1.43,1.84-5.67,2.6c-6.32,1.13-10.77-1.5-10.77-1.5"/>
        </g>
        <path class="cls-9" d="M650.1,334.67s-6.45,8.7-10.67,12.58c-3.98,3.65-9,7.84-14.56,7.84"/>
        <path class="cls-21" d="M604.23,284.65c5.87,8.44,46.48,21.34,48.83,21.75,4.16,.74,4.04-5.57,10.63-6.34,3.5-.41,5.64,2.02,5.64,2.02v-7.5s-61.13-14.51-65.1-9.93Z"/>
        <path class="cls-21" d="M611.09,275.13c-.92,10.24-17.69,27.01-19.87,27.99-1.8,.8-1.1-13.96-1.1-13.96,0,0,15.24-16.05,20.97-14.03Z"/>
        <g id="Hat">
          <path class="cls-41" d="M587.36,288.43s-1.2-13.34,4.05-22.95c4.74-8.65,14.13-15.77,25.41-16.37,0,0,4.39-1.2,13.23-1.49,9.44-.31,14.17,1.8,14.17,1.8,0,0,15.43,4.99,20.96,16.69s5.65,21.4,4.87,27.53c0,0-43.69-7.54-59.33-9.02"/>
          <path class="cls-60" d="M620.84,286.91s3.27-20.77,8.9-28.33c5.76-7.72,14.47-9.17,14.47-9.17,0,0-13.21-15.51-27.4-.31-5.53,5.93-13.99,23.53-13.86,37.92,0,0,11.12-1.39,17.89-.12Z"/>
          <rect class="cls-60" x="598.82" y="246.84" width="7.49" height="12.55" transform="translate(-6.7 16.58) rotate(-1.57)"/>
          <rect class="cls-60" x="646.8" y="248.63" width="7.49" height="12.55" transform="translate(-6.73 17.9) rotate(-1.57)"/>
          <path class="cls-60" d="M673.03,295.11l.03-4.39s-37.1-5.3-62.34-6.11c-11.85-.38-25.46,2.1-25.46,2.1l.24,4.95s12.51-2.23,25.94-2.05c22.25,.3,61.59,5.5,61.59,5.5Z"/>
        </g>
        <path class="cls-48" d="M744.45,530.59s-37.8,4.73-60.1,12.66c-10.7,3.8-42.1,17.61-42.1,17.61,0,0,3.01,24.36,9.55,24.51,6.55,.14,44.23-10.88,63.25-17.01,23.23-7.49,42.31-15.09,43.19-16.86,.88-1.77-13.8-20.9-13.8-20.9Z"/>
        <path class="cls-25" d="M711.33,535.33c-16.2,4.54-44.67,12.92-69.08,25.54"/>
        <path class="cls-33" d="M746.28,506.13s20.17,47.85,18.75,52.62-28.3,22.47-35.38,21.58c-7.08-.88-37.69-45.9-37.69-45.9,0,0,49.36-28.66,54.31-28.31Z"/>
        <path class="cls-48" d="M746.28,506.13s-9.28,29.54-12.29,32.91-42.02-4.6-42.02-4.6c0,0,47.59-27.42,54.31-28.31Z"/>
        <path class="cls-9" d="M663.76,304.3s3.7,2.87,3.11,6.11c-.59,3.24-3.11,6.05-3.11,6.05"/>
      </g>
      <g>
        <rect class="cls-57" x="294.23" y="548.14" width="701.02" height="402.36" rx="7.78" ry="7.78"/>
        <g class="cls-43">
          <g>
            <line class="cls-4" x1="284.26" y1="607.37" x2="1006.12" y2="607.37"/>
            <line class="cls-4" x1="284.4" y1="550.59" x2="1006.26" y2="550.59"/>
            <line class="cls-4" x1="283.44" y1="948.05" x2="1005.3" y2="948.05"/>
            <line class="cls-4" x1="284.13" y1="664.15" x2="1005.99" y2="664.15"/>
            <line class="cls-4" x1="283.99" y1="720.93" x2="1005.85" y2="720.93"/>
            <line class="cls-4" x1="283.85" y1="777.71" x2="1005.71" y2="777.71"/>
            <line class="cls-4" x1="283.71" y1="834.49" x2="1005.57" y2="834.49"/>
            <line class="cls-4" x1="283.58" y1="891.27" x2="1005.44" y2="891.27"/>
            <line class="cls-4" x1="389.88" y1="607.11" x2="389.88" y2="552.34"/>
            <line class="cls-4" x1="389.88" y1="720.37" x2="389.88" y2="665.6"/>
            <line class="cls-4" x1="389.88" y1="833.13" x2="389.88" y2="778.36"/>
            <line class="cls-4" x1="389.88" y1="946.43" x2="389.88" y2="891.66"/>
            <line class="cls-4" x1="478.16" y1="607.11" x2="478.16" y2="552.34"/>
            <line class="cls-4" x1="478.16" y1="720.37" x2="478.16" y2="665.6"/>
            <line class="cls-4" x1="478.16" y1="833.13" x2="478.16" y2="778.36"/>
            <line class="cls-4" x1="478.16" y1="946.43" x2="478.16" y2="891.66"/>
            <line class="cls-4" x1="566.44" y1="607.11" x2="566.44" y2="552.34"/>
            <line class="cls-4" x1="566.44" y1="720.37" x2="566.44" y2="665.6"/>
            <line class="cls-4" x1="566.44" y1="833.13" x2="566.44" y2="778.36"/>
            <line class="cls-4" x1="566.44" y1="946.43" x2="566.44" y2="891.66"/>
            <line class="cls-4" x1="654.72" y1="607.11" x2="654.72" y2="552.34"/>
            <line class="cls-4" x1="654.72" y1="720.37" x2="654.72" y2="665.6"/>
            <line class="cls-4" x1="654.72" y1="833.13" x2="654.72" y2="778.36"/>
            <line class="cls-4" x1="654.72" y1="946.43" x2="654.72" y2="891.66"/>
            <line class="cls-4" x1="743" y1="607.11" x2="743" y2="552.34"/>
            <line class="cls-4" x1="743" y1="720.37" x2="743" y2="665.6"/>
            <line class="cls-4" x1="743" y1="833.13" x2="743" y2="778.36"/>
            <line class="cls-4" x1="743" y1="946.43" x2="743" y2="891.66"/>
            <line class="cls-4" x1="831.28" y1="607.11" x2="831.28" y2="552.34"/>
            <line class="cls-4" x1="831.28" y1="720.37" x2="831.28" y2="665.6"/>
            <line class="cls-4" x1="831.28" y1="833.13" x2="831.28" y2="778.36"/>
            <line class="cls-4" x1="831.28" y1="946.43" x2="831.28" y2="891.66"/>
            <line class="cls-4" x1="919.56" y1="607.11" x2="919.56" y2="552.34"/>
            <line class="cls-4" x1="435.38" y1="663.87" x2="435.38" y2="609.1"/>
            <line class="cls-4" x1="523.66" y1="663.87" x2="523.66" y2="609.1"/>
            <line class="cls-4" x1="611.94" y1="663.87" x2="611.94" y2="609.1"/>
            <line class="cls-4" x1="700.22" y1="663.87" x2="700.22" y2="609.1"/>
            <line class="cls-4" x1="788.5" y1="663.87" x2="788.5" y2="609.1"/>
            <line class="cls-4" x1="876.78" y1="663.87" x2="876.78" y2="609.1"/>
            <line class="cls-4" x1="965.06" y1="663.87" x2="965.06" y2="609.1"/>
            <line class="cls-4" x1="435.38" y1="777.03" x2="435.38" y2="722.26"/>
            <line class="cls-4" x1="523.66" y1="777.03" x2="523.66" y2="722.26"/>
            <line class="cls-4" x1="611.94" y1="777.03" x2="611.94" y2="722.26"/>
            <line class="cls-4" x1="700.22" y1="777.03" x2="700.22" y2="722.26"/>
            <line class="cls-4" x1="788.5" y1="777.03" x2="788.5" y2="722.26"/>
            <line class="cls-4" x1="876.78" y1="777.03" x2="876.78" y2="722.26"/>
            <line class="cls-4" x1="965.06" y1="777.03" x2="965.06" y2="722.26"/>
            <line class="cls-4" x1="435.38" y1="891.27" x2="435.38" y2="836.5"/>
            <line class="cls-4" x1="343.43" y1="663.33" x2="343.43" y2="608.56"/>
            <line class="cls-4" x1="343.43" y1="776.49" x2="343.43" y2="721.72"/>
            <line class="cls-4" x1="343.43" y1="890.73" x2="343.43" y2="835.96"/>
            <line class="cls-4" x1="523.66" y1="891.27" x2="523.66" y2="836.5"/>
            <line class="cls-4" x1="611.94" y1="891.27" x2="611.94" y2="836.5"/>
            <line class="cls-4" x1="700.22" y1="891.27" x2="700.22" y2="836.5"/>
            <line class="cls-4" x1="788.5" y1="891.27" x2="788.5" y2="836.5"/>
            <line class="cls-4" x1="876.78" y1="891.27" x2="876.78" y2="836.5"/>
            <line class="cls-4" x1="965.06" y1="891.27" x2="965.06" y2="836.5"/>
            <line class="cls-4" x1="919.56" y1="720.37" x2="919.56" y2="665.6"/>
            <line class="cls-4" x1="919.56" y1="833.13" x2="919.56" y2="778.36"/>
            <line class="cls-4" x1="919.56" y1="946.43" x2="919.56" y2="891.66"/>
          </g>
        </g>
      </g>
      <g>
        <rect class="cls-29" x="281.44" y="548.02" width="701.02" height="402.36" rx="7.78" ry="7.78"/>
        <g class="cls-35">
          <g>
            <line class="cls-1" x1="271.47" y1="607.25" x2="993.33" y2="607.25"/>
            <line class="cls-1" x1="271.61" y1="550.47" x2="993.47" y2="550.47"/>
            <line class="cls-1" x1="270.65" y1="947.93" x2="992.51" y2="947.93"/>
            <line class="cls-1" x1="271.33" y1="664.03" x2="993.19" y2="664.03"/>
            <line class="cls-1" x1="271.2" y1="720.81" x2="993.06" y2="720.81"/>
            <line class="cls-1" x1="271.06" y1="777.59" x2="992.92" y2="777.59"/>
            <line class="cls-1" x1="270.92" y1="834.37" x2="992.78" y2="834.37"/>
            <line class="cls-1" x1="270.78" y1="891.15" x2="992.64" y2="891.15"/>
            <line class="cls-1" x1="377.09" y1="606.99" x2="377.09" y2="552.22"/>
            <line class="cls-1" x1="377.09" y1="720.25" x2="377.09" y2="665.48"/>
            <line class="cls-1" x1="377.09" y1="833.01" x2="377.09" y2="778.24"/>
            <line class="cls-1" x1="377.09" y1="946.31" x2="377.09" y2="891.54"/>
            <line class="cls-1" x1="465.37" y1="606.99" x2="465.37" y2="552.22"/>
            <line class="cls-1" x1="465.37" y1="720.25" x2="465.37" y2="665.48"/>
            <line class="cls-1" x1="465.37" y1="833.01" x2="465.37" y2="778.24"/>
            <line class="cls-1" x1="465.37" y1="946.31" x2="465.37" y2="891.54"/>
            <line class="cls-1" x1="553.65" y1="606.99" x2="553.65" y2="552.22"/>
            <line class="cls-1" x1="553.65" y1="720.25" x2="553.65" y2="665.48"/>
            <line class="cls-1" x1="553.65" y1="833.01" x2="553.65" y2="778.24"/>
            <line class="cls-1" x1="553.65" y1="946.31" x2="553.65" y2="891.54"/>
            <line class="cls-1" x1="641.93" y1="606.99" x2="641.93" y2="552.22"/>
            <line class="cls-1" x1="641.93" y1="720.25" x2="641.93" y2="665.48"/>
            <line class="cls-1" x1="641.93" y1="833.01" x2="641.93" y2="778.24"/>
            <line class="cls-1" x1="641.93" y1="946.31" x2="641.93" y2="891.54"/>
            <line class="cls-1" x1="730.21" y1="606.99" x2="730.21" y2="552.22"/>
            <line class="cls-1" x1="730.21" y1="720.25" x2="730.21" y2="665.48"/>
            <line class="cls-1" x1="730.21" y1="833.01" x2="730.21" y2="778.24"/>
            <line class="cls-1" x1="730.21" y1="946.31" x2="730.21" y2="891.54"/>
            <line class="cls-1" x1="818.49" y1="606.99" x2="818.49" y2="552.22"/>
            <line class="cls-1" x1="818.49" y1="720.25" x2="818.49" y2="665.48"/>
            <line class="cls-1" x1="818.49" y1="833.01" x2="818.49" y2="778.24"/>
            <line class="cls-1" x1="818.49" y1="946.31" x2="818.49" y2="891.54"/>
            <line class="cls-1" x1="906.77" y1="606.99" x2="906.77" y2="552.22"/>
            <line class="cls-1" x1="422.58" y1="663.75" x2="422.58" y2="608.98"/>
            <line class="cls-1" x1="510.86" y1="663.75" x2="510.86" y2="608.98"/>
            <line class="cls-1" x1="599.14" y1="663.75" x2="599.14" y2="608.98"/>
            <line class="cls-1" x1="687.42" y1="663.75" x2="687.42" y2="608.98"/>
            <line class="cls-1" x1="775.7" y1="663.75" x2="775.7" y2="608.98"/>
            <line class="cls-1" x1="863.98" y1="663.75" x2="863.98" y2="608.98"/>
            <line class="cls-1" x1="952.26" y1="663.75" x2="952.26" y2="608.98"/>
            <line class="cls-1" x1="422.58" y1="776.91" x2="422.58" y2="722.14"/>
            <line class="cls-1" x1="510.86" y1="776.91" x2="510.86" y2="722.14"/>
            <line class="cls-1" x1="599.14" y1="776.91" x2="599.14" y2="722.14"/>
            <line class="cls-1" x1="687.42" y1="776.91" x2="687.42" y2="722.14"/>
            <line class="cls-1" x1="775.7" y1="776.91" x2="775.7" y2="722.14"/>
            <line class="cls-1" x1="863.98" y1="776.91" x2="863.98" y2="722.14"/>
            <line class="cls-1" x1="952.26" y1="776.91" x2="952.26" y2="722.14"/>
            <line class="cls-1" x1="422.58" y1="891.15" x2="422.58" y2="836.38"/>
            <line class="cls-1" x1="330.64" y1="663.21" x2="330.64" y2="608.44"/>
            <line class="cls-1" x1="330.64" y1="776.37" x2="330.64" y2="721.6"/>
            <line class="cls-1" x1="330.64" y1="890.61" x2="330.64" y2="835.84"/>
            <line class="cls-1" x1="510.86" y1="891.15" x2="510.86" y2="836.38"/>
            <line class="cls-1" x1="599.14" y1="891.15" x2="599.14" y2="836.38"/>
            <line class="cls-1" x1="687.42" y1="891.15" x2="687.42" y2="836.38"/>
            <line class="cls-1" x1="775.7" y1="891.15" x2="775.7" y2="836.38"/>
            <line class="cls-1" x1="863.98" y1="891.15" x2="863.98" y2="836.38"/>
            <line class="cls-1" x1="952.26" y1="891.15" x2="952.26" y2="836.38"/>
            <line class="cls-1" x1="906.77" y1="720.25" x2="906.77" y2="665.48"/>
            <line class="cls-1" x1="906.77" y1="833.01" x2="906.77" y2="778.24"/>
            <line class="cls-1" x1="906.77" y1="946.31" x2="906.77" y2="891.54"/>
          </g>
        </g>
      </g>
      <g>
        <line class="cls-16" x1="362.16" y1="565.43" x2="281.27" y2="1012.63"/>
        <line class="cls-16" x1="458.69" y1="631.56" x2="350.12" y2="631.1"/>
        <line class="cls-16" x1="441.94" y1="727.27" x2="333.04" y2="728.73"/>
        <line class="cls-16" x1="421.99" y1="824.9" x2="315.6" y2="824.45"/>
        <line class="cls-16" x1="406.58" y1="921.58" x2="298.01" y2="921.12"/>
        <line class="cls-16" x1="470.82" y1="565.43" x2="389.93" y2="1012.63"/>
      </g>
      <g id="Mary">
        <ellipse class="cls-37" cx="1303.62" cy="985.19" rx="158.5" ry="20.02"/>
        <path class="cls-42" d="M1319.17,935.41v23.35s12.01,3.2,21.12,3.41,15.27-3.41,15.27-3.41v-23.35s-15.47-10.89-21.9-9.57c-6.42,1.32-14.49,9.57-14.49,9.57Z"/>
        <path class="cls-42" d="M1247.03,936.64v23.35s12.01,3.2,21.12,3.41,15.27-3.41,15.27-3.41v-23.35s-15.47-10.89-21.9-9.57c-6.42,1.32-14.49,9.57-14.49,9.57Z"/>
        <path class="cls-63" d="M1239.43,975.87c19.6,6.52,34.26,4.88,51.8,0,.31-13.06-7.98-28.61-24.81-28.4s-24.05,10.73-26.99,28.4Z"/>
        <path class="cls-63" d="M1363.44,975.69c-19.6,6.52-34.26,4.88-51.8,0-.31-13.06,7.98-28.61,24.81-28.4,16.83,.21,24.05,10.73,26.99,28.4Z"/>
        <path class="cls-61" d="M1206.36,536.66l-17.25,72.64c-.42,1.55-.54,3.16-.35,4.75l2.07,22.31s3.33,17.08,16.17,17.57,13.81-17.57,13.81-17.57l-1.11-12.93c-.55-3.01-.02-6.12,1.5-8.78l16.2-46.13"/>
        <path class="cls-27" d="M1240.54,637.37s-64.91-2.39-69.11,1.84c-4.2,4.24-2.24,86.75,0,91.48,2.24,4.74,60.32,3.21,60.32,3.21"/>
        <path class="cls-23" d="M1237.41,645.25s-51.78-1.8-56.51,2.68c-4.74,4.49-2.99,70.29,0,73.78,2.99,3.49,47.75,0,47.75,0"/>
        <path class="cls-24" d="M1178.73,670.28s6.98-2.09,7.98,0,1.5,21.03,0,23.53c-1.5,2.49-7.98,0-7.98,0"/>
        <path class="cls-38" d="M1229.78,668.21s40.37-10.11,58.99-9.89c18.61,.21,68.01,6.79,68.01,6.79,0,0,7.69,39.33,5.01,62.23-2.68,22.9-4.95,200.41-4.95,200.41,0,0-12.04-4.3-18.53-3.22s-19.84,4.72-19.84,4.72l-23.21-217.8-9.95,222.36s-23.44-1.97-25.45-1.78-15.14,1.46-15.5,3.7c-.35,2.24-12.7-167.3-13.25-172.14s-4.47-65.66-4.26-70.56c.21-4.9,2.93-24.81,2.93-24.81Z"/>
        <path class="cls-59" d="M1314.87,923.82s-4.7,7.56-1.75,15.82c2.49,6.97,16.79-1.41,26.08,0,9.28,1.41,20.09,4.71,22.63,1.83,2.54-2.88-1.27-19.06-1.27-19.06,0,0-12.93-8.07-22.8-6.67s-22.88,8.08-22.88,8.08"/>
        <path class="cls-59" d="M1286.87,925.87s4.7,7.56,1.75,15.82c-2.49,6.97-16.79-1.41-26.08,0-9.28,1.41-20.09,4.71-22.63,1.83s1.27-19.06,1.27-19.06c0,0,12.93-8.07,22.8-6.67s22.88,8.08,22.88,8.08"/>
        <path class="cls-21" d="M1248.29,400.03s-14.96,23.21-11.79,45.71c3.17,22.5,10.74,35.86,10.74,35.86l63.4,20.43,24.49-18.67s9.9-22.9,9.21-43.62c-.66-19.91-11.53-38.25-11.53-38.25l-42.87-16.94-44.99,17.86"/>
        <path class="cls-39" d="M1189.71,736.22c-1.19-5.7,.26-13.08,.54-14.62,.26-1.41,1.82-4.52,3.77-4.61,2.33-.1,3.05,2.86,3.38,3.95,.24,.79,.73,7.15,1.2,11.52,.51-4.59,1.65-10.87,2.23-12.33,.46-1.15,2.11-3.61,3.93-3.65,1.68-.03,2.94,2.7,2.94,4.12,0,1.28,.22,4.34,0,11.38,1.07-5.44,3.63-12.98,3.63-12.98,.38-.94,1.12-2.55,3.04-2.55,1.43,0,2.57,1.78,2.54,3.26-.02,1.21,.06,6.4-.92,13.03,.98-3.2,2.87-9.07,2.87-9.07,.17-.47,1-2.01,2.74-1.92,1.71,.09,2.43,2.18,2.37,2.76,0,0,.94,7.45-.61,11.39-3.08,3.46-9.16,3.81-15.66,3.81-10.34,0-15.37-1.03-17.99-3.51Z"/>
        <path class="cls-61" d="M1391.03,560.61c4-9.54,35.91-65.27,35.91-65.27l17.26,6.46s-39.61,102.7-56.59,106.76c-7.47,1.79-33.6-35.96-33.6-35.96,0,0,2.08-6.02,8.5-14.8,5.12-7,23.28-5.11,23.28-5.11,0,0,8.17,12.48,13.41,19.9"/>
        <path class="cls-49" d="M1271.42,474.59s-28.39,2.29-48.64,19.86c-19.59,16.99-32.94,56.14-31.94,59.39,1,3.24,16.47,8.48,27.45,15.47,10.98,6.99,16.97,10.98,16.97,10.98l5.99-23.95,30.17-16.97v-64.77Z"/>
        <path class="cls-49" d="M1311.16,474.59s29.03,2.48,48.64,19.86c19.41,17.2,32.94,56.14,31.94,59.39-1,3.24-16.47,8.48-27.45,15.47-10.98,6.99-16.97,10.98-16.97,10.98l-5.99-23.95-30.17-16.97v-64.77Z"/>
        <path class="cls-41" d="M1231.1,487.73s-2.76,49.43,0,65.6c2.14,12.54,10.89,30.94,7.14,50.4-3.74,19.46-13.97,66.87-13.97,66.87h138.23s-10.09-57.39-11.03-69.86c-.94-12.48-2.53-27.32,0-45.03,2-13.93-3.38-70.06-3.38-70.06,0,0-22.91-11.45-36.94-11.06-14.03,.39-39.74,0-39.74,0,0,0-27.78,1.87-40.31,13.14Z"/>
        <polygon class="cls-31" points="1274.94 469.06 1271.42 469.06 1271.42 474.59 1281.09 502.41 1290.68 492.21 1292.15 492.21 1302 502.41 1311.16 474.41 1311.16 469.06 1308.05 468.89 1274.94 469.06"/>
        <path class="cls-61" d="M1274.94,458.61v10.45l15.74,23.16h1.47l15.9-23.33-.31-10.28s-11.5,4.23-16.93,3.32-11.84,.32-15.87-3.32Z"/>
        <path class="cls-61" d="M1257.42,406.41s-5.37-4.84-8.9,1.31c-3.54,6.15,1.29,14.4,2.6,17.85,2.08,5.47,4.73,4.41,4.73,4.41,0,0,5.64,12.88,11.34,20.68,4.02,5.49,14.08,14.83,23.63,14.83,6.92,0,14.55-4.02,19.92-9.64,5.02-5.26,13.56-19.18,14.86-26.18,0,0,2.33,1.47,5.1-4.92,3.68-8.29,4.88-14.14,1.21-18.14-3.67-4-8.49-.18-8.49-.18,0,0-3.25,2.52-6.09,.18-5.61-4.63-26.5-25.55-26.5-25.55,0,0-25.29,23.67-26.39,24.73-3.54,3.4-7.01,.65-7.01,.65Z"/>
        <path class="cls-41" d="M1269.62,354.1s-12.36,7.01-17.28,18.69c-4.67,11.1-4.1,24.86-4.1,24.86h-3.37v4.65h90.14v-4.72s-3.74-.11-3.74-.11c0,0,2.31-13.83-4.67-27.4-6.27-12.2-15.31-15.33-15.31-15.33v-6.81l-4.5,.06v4.3l-8.86-2.5s-.98-4.43-7.19-4.43c-6.15,0-7.84,4.3-7.84,4.3l-8.03,1.99-.12-3.53-5.02,.19-.13,5.78Z"/>
        <path class="cls-60" d="M1282.78,350.06s1.8-4.82,7.58-4.75,8.22,4.75,8.22,4.75c0,0,1.03,15.09,2.44,24.53,1.41,9.44,3.6,22.86,3.6,22.86h-27.62s6.94-36.67,5.78-47.4Z"/>
        <rect class="cls-60" x="1306.55" y="348.39" width="4.62" height="10.53"/>
        <rect class="cls-60" x="1269.94" y="348.39" width="4.62" height="10.53"/>
        <rect class="cls-60" x="1244.95" y="397.65" width="90.17" height="4.75"/>
        <path class="cls-39" d="M1444.77,457.48l4.98-18.49c.36-1.39-1.53-3.51-3.37-3.51-2.13,0-4.07,1.27-4.43,2.05-2.19,4.75-9.46,22.89-9.58,27.84l-6.38-9.54c-.85-1.14-3.79-1.4-5.56-.3-1.9,1.18-2.59,3.75-2.33,4.8l4.09,16.63,6.22,12.71,20.68,6.35s8.79-18.55,16.85-23.18c7.78-4.47,9.73-7.57,9.3-9.37-.36-1.51-2.71-2.11-4.13-1.5l-13.88,5.09,10.35-14.92c.83-1.2,.41-3.45-.81-4.24-1.62-1.06-3.19-.58-3.95,.25l-11.55,13.27,10.33-20.15c.52-1.01,.19-3.25-1.2-4.09-2-1.2-3.88-.83-4.65,.16l-9.09,13.64"/>
        <path class="cls-65" d="M1427.05,489.85l-2.37,2.56c-.91,.98-.53,2.58,.73,3.04l19.62,7.21c.94,.35,1.99-.11,2.38-1.03l1.68-3.95c.44-1.03-.11-2.2-1.18-2.53l-18.92-5.81c-.69-.21-1.44-.01-1.93,.52Z"/>
        <path class="cls-49" d="M1290.68,492.21l-5.49,5.84s5.46,21.1,6.3,29.38c0,0,2.82-20.75,6.3-29.38-1.37-1.8-5.64-5.84-5.64-5.84"/>
        <path class="cls-28" d="M1279.2,416.52c0,2.17-1.62,3.12-3.62,3.12s-3.62-.95-3.62-3.12,1.62-3.94,3.62-3.94,3.62,1.76,3.62,3.94Z"/>
        <path class="cls-6" d="M1267.1,416.93s3.23-4.41,7.2-4.34,6.13,2.78,6.13,2.78"/>
        <path class="cls-28" d="M1305.21,416.52c0,2.17,1.62,3.12,3.62,3.12s3.62-.95,3.62-3.12-1.62-3.94-3.62-3.94-3.62,1.76-3.62,3.94Z"/>
        <path class="cls-6" d="M1317.31,416.93s-3.23-4.41-7.2-4.34-6.13,2.78-6.13,2.78"/>
        <path class="cls-6" d="M1264.43,410.42s4.01-4.52,7.83-4.66c3.82-.14,8.63,2.63,8.63,2.63"/>
        <path class="cls-6" d="M1319.43,410.42s-4.25-4.51-8.07-4.65c-3.82-.14-8.39,2.63-8.39,2.63"/>
        <path class="cls-6" d="M1291.49,415.11s4.7,17.1,3.27,18.57c-1.43,1.47-3.96-.46-3.96-.46"/>
        <path class="cls-6" d="M1280.44,441.46s1.88,2.93,6.4,4.34c6.09,1.9,11.77-2.09,11.77-2.09"/>
        <path class="cls-5" d="M1254.86,410.42s-3.69,2.86-3.1,6.1,3.1,6.04,3.1,6.04"/>
        <path class="cls-5" d="M1325.75,411.48s3.69,2.86,3.1,6.1c-.59,3.24-3.1,6.04-3.1,6.04"/>
        <circle class="cls-23" cx="1254.49" cy="426.99" r="2.14"/>
        <circle class="cls-23" cx="1327.56" cy="427.25" r="2.78"/>
        <path class="cls-44" d="M1353.26,614.69s-32.43,5.54-57.5,5.9c-29.32,.42-59.56-6.54-59.56-6.54,0,0,.83-4.1,2.05-10.32,11.18,3.96,28.29,6.65,56.34,6.75,21.45,.08,51.16-3.58,57.22-6.44,.59,4.57,1.45,10.65,1.45,10.65Z"/>
        <path class="cls-44" d="M1357.19,639.44s-34.09,6.94-61.34,7.3c-31.87,.42-64.75-8.17-64.75-8.17,0,0,.77-3.79,2.1-10.01,12.15,3.96,30.89,7.97,61.38,8.06,23.32,.08,54.39-4.38,60.97-7.23,.92,4.19,1.64,10.04,1.64,10.04Z"/>
        <path class="cls-18" d="M1276.76,460.01s2.87,2.08,6.3,3.59c2.86,1.26,7.76,1.89,7.76,1.89"/>
        <polygon class="cls-8" points="1275.14 469.06 1271.62 469.06 1271.62 474.59 1281.3 502.41 1290.88 492.21 1292.36 492.21 1302.21 502.41 1311.36 474.41 1311.36 469.06 1308.25 468.89 1292.36 492.21 1290.88 492.21 1275.14 469.06"/>
        <polyline class="cls-8" points="1285.19 498.26 1291.34 527.15 1297.55 497.55"/>
        <path class="cls-2" d="M1231.84,489.28s-2.9,45.55-1.56,56.1c1.34,10.55,5.54,25.89,6.34,29.44,.8,3.55,4.34,14.19,3.23,23.94"/>
        <path class="cls-13" d="M1351.47,577.55s17.2-11.7,26.23-15.44c8.36-3.46,15.23-5.51,13.67-11.36-.78-2.94-6.68-18.54-9-23.59"/>
        <line class="cls-7" x1="1446.66" y1="450.96" x2="1444.99" y2="458.16"/>
        <path class="cls-7" d="M1432.86,466.13s3.51,3.67,5.21,7.15c1.7,3.48,2.72,9.34,2.72,9.34"/>
        <path class="cls-10" d="M1238.25,604.54c9,2.58,22.93,5.56,42.31,6.45,18.82,.87,42.77-.68,48.18-1.8"/>
        <path class="cls-10" d="M1264.74,635.78c7.17,.75,22.59,1.95,43.02,.92,18.78-.95,42.65-5.59,47.8-7.3"/>
        <polyline class="cls-2" points="1225.08 669.79 1361.56 669.79 1358.41 651.71"/>
        <path class="cls-12" d="M1233.67,792.15l9.79,131.01s11.25-5.56,14.93-5.56c3.68,0,11.48,.95,16.27,2.62,4.79,1.67,10.87,4.98,10.87,4.98"/>
        <line class="cls-12" x1="1294.59" y1="706.47" x2="1311.99" y2="868.55"/>
        <path class="cls-19" d="M1243.56,961.6s5.5-14.05,20.89-14.05c12.5,0,25.03,6.37,26.79,27.87"/>
        <path class="cls-19" d="M1358.84,960.46s-6.77-12.99-21.31-12.99c-12.5,0-24.14,6.31-25.9,27.81"/>
      </g>
      <g id="Person_1" data-name="Person 1">
        <path class="cls-56" d="M874.42,597.38s5.48,14.74,9.54,20.5c3.16,3.8,5.44,6.78,5.44,6.78l9.3-15.61-14.74-13.56-9.54,1.89Z"/>
        <ellipse class="cls-37" cx="808.5" cy="1100.42" rx="238.74" ry="20.02"/>
        <ellipse class="cls-37" cx="1112.62" cy="1173.65" rx="158.5" ry="20.02"/>
        <g id="Wheel_Barrow" data-name="Wheel Barrow">
          <path class="cls-36" d="M1166.25,1085.71s-7.35,60.14-11.92,67.05-10.37,2.45-10.37,2.45l4.79-75.59,17.5,6.09Z"/>
          <polygon class="cls-66" points="951.85 876.43 1012.86 955.1 1021.13 947.03 960.12 867.15 951.85 876.43"/>
          <polygon class="cls-66" points="1026.85 829.98 1082.92 902.49 1090.57 898.87 1034.94 823.03 1026.85 829.98"/>
          <path class="cls-64" d="M999.45,836.29l-65.95,32.41s-7.91,4.14-5.22,10.18c3.09,6.95,12.24,4.15,12.24,4.15l119.41-56.68s6.05-4.44,2.22-10.89-11.7-3.93-11.7-3.93l-51,24.77Z"/>
          <path class="cls-53" d="M1021.39,940.49s40.89,63.67,73.06,83.95c32.17,20.28,95.01,35.36,108.92,36.7l10.34-28.59-122.94-135.3-69.37,43.23Z"/>
          <path class="cls-46" d="M1034.76,967.07s19.96-3.4,38.68,1.74c32.31,8.87,64.64,27.74,91.02,36.01,18.46,5.79,26.79,25.83,32.63,36.45,2.8,5.09,9.16,15.06,7.45,19.08-.9,2.12-5.83-.31-5.83-.31l-107.22-9.68-56.73-83.29Z"/>
          <path class="cls-64" d="M1021.39,940.49l-13.41,13.41s2.65,34.24,9.89,60.83c10.55,38.78,38.88,81.27,72.39,90.82,45.48,12.96,99.54-21.28,113.11-44.41-12.4-2.51-34.9-9.32-48.47-15.35-22.63-10.06-39.84-18-74.02-43.47-17.2-12.82-59.49-61.83-59.49-61.83Z"/>
        </g>
        <path class="cls-45" d="M933.09,741.42s20.26,36.67,29.11,48.52c7.51,10.05,48.51,40.88,48.51,40.88,0,0,5.53-.88,8.21-2.97,3.58,6.12,5.49,13.09,9.55,15.68,8.96,.81,15.23-4.34,18.21-7.91,2.54-5.67-4.29-16.64-8.57-20.98-7.4-4.1-17.25-.49-17.25-.49,0,0-33.88-34.34-36.58-39.14-5.37-9.55-18.81-51.05-18.81-51.05h-21.5l-10.9,17.47Z"/>
        <g id="Clothes-2" data-name="Clothes">
          <path class="cls-32" d="M931.25,1113.44l59.95-37.12c2.31-1.43,2.8-5.06,1.02-7.52-6.01-8.33-14.69-17.42-27.53-17.23-17.85,.27-41.21,11.15-44.85,13.65-.37,.26-.7,.58-.98,.96l-8.13-1.91c-3.66,12.38,14.83,47.19,14.83,47.19,1.23,2.32,3.73,3.19,5.69,1.98Z"/>
          <path class="cls-32" d="M620.22,1024.29l24.9,72.66c.96,2.8,4.23,4.01,6.79,2.52,8.63-5.05,25.45-16.51,25.6-29.3,.24-19.86-9.22-44.96-10.97-49.42-.18-.46-.43-.88-.74-1.25l-8.95-10.91c-1.29-1.57-3.44-2.13-5.32-1.39l-28.6,11.22c-2.33,.91-3.53,3.5-2.72,5.87Z"/>
          <path class="cls-34" d="M887.62,640.44s-6.6-10.38-17.78-8.36c-18.59,3.35-32.95,23.88-42.08,35.9-10.73,14.13-39.68,73-39.68,73l52.15,27.84,10.95-41,7.13,22.66,55.26-25.21,14.87,18.59,42.93-23.94-29.03-53.73-16.04-10.24-6.62-3.51-20.88-18.33-11.18,6.32Z"/>
          <path class="cls-50" d="M850.2,727.75s-20.27,10.08-28.65,12.15c-6.32,1.56-23.98,1.08-33.47,1.08-15.53,33.07-30.77,63.27-30.77,72.48s7.19,27.61,5.75,43.72c-1.44,16.11-8.05,75.35-8.05,75.35l-104.69,78.23,13.51,30.99,10.07,11.57s113.03-72.19,117.34-76.5,32.21-32.79,32.21-32.79l40.84-88.01,29.34-58.1s45.11-79.12,47.29-93.05c2.18-13.93,3.9-35.79,3.9-35.79,0,0-3.06-5.23-6.22-7.25-3.16-2.01-9.32-3.98-9.32-3.98,0,0-4.01,35.47-5.3,35.4l-23.4-.6-50.38,35.09Z"/>
          <path class="cls-50" d="M770.14,858.17l134.89,211.99,31.84-11.25,3.31-17.2s-74.1-134.97-80.06-171.36c-5.95-36.39-73.44-44.99-73.44-44.99l-16.54,32.82Z"/>
          <line class="cls-26" x1="787.02" y1="884.69" x2="905.04" y2="1070.16"/>
          <path class="cls-40" d="M903.21,1069.72l6.84,10.52c.62,.96,1.86,1.31,2.89,.82,4.17-1.99,14.64-7.17,21.65-12.28,5.3-3.86,11.51-10.71,13.98-13.53,.66-.75,.75-1.83,.24-2.68l-5.83-9.71c-.74-1.23-2.42-1.48-3.49-.52-5.45,4.9-20.88,18.11-35.23,24.03-1.33,.55-1.84,2.15-1.06,3.36Z"/>
          <path class="cls-40" d="M683.97,1052.67l-14.05,6.26c-1.28,.57-2.79,.11-3.52-1.09-2.97-4.83-10.28-17.15-14.09-27.07-2.88-7.51-4.7-18.7-5.36-23.25-.18-1.21,.45-2.39,1.54-2.92l12.48-6.1c1.58-.77,3.48,.09,3.93,1.79,2.33,8.68,9.4,32.57,20.22,48.23,1,1.45,.46,3.44-1.15,4.16Z"/>
        </g>
        <path class="cls-17" d="M926.28,693.91s-21.18-1.59-25.7-1.24"/>
        <path class="cls-45" d="M863.82,739.74s22.82,50.41,32.01,58.95c9.19,8.54,51.74,63.09,51.74,63.09,0,0,11.63-6.47,15.4-3.61,4.23,3.2,4.08,5.64,3.83,10.64-.07,1.3,1.16,2.29,2.42,1.94,6.54-1.84,18.82-2.89,24.94-10.95,2.54-5.67-3.59-15.32-7.76-18.51-5.02-3.84-28.36,1.79-28.36,1.79,0,0-30.14-54.61-32.84-59.41-5.37-9.55-22.88-63.17-22.88-63.17l-27.58,3.46-10.9,15.78Z"/>
        <path class="cls-45" d="M888.65,602.75s-.06,17-.66,26.16c-.5,7.59-4.03,10.01-4.03,10.01,0,0,19.37,36.17,33.75,21.53l8.59-39.8-37.65-17.89Z"/>
        <path class="cls-49" d="M887.62,640.44s-5.99-11.88-16.78-10.36c-23.1,3.26-29.11,43.01-22.66,75.06,3.36,16.69,3.68,30.82,11.58,42.01l53.42-23.58-25.55-83.14Z"/>
        <path class="cls-45" d="M890.79,570.3l-.56,16.92c-.03,.92-1.17,1.35-1.79,.67-3.21-3.54-10.38-9.92-16.35-4.37-7.96,7.4,7.55,23.09,9.58,24.3,2.15,1.29,3.92,1.07,5.01,.67,.6-.22,1.26,.14,1.38,.77,.37,2.14,1.64,6.37,5.89,10.77,6.13,6.33,15.66,16.49,22.6,16.5,9.18,0,28.06-18.71,29.65-25.41,2.49-10.53,4.56-31.95,5.01-36.84,.05-.56-.36-1.05-.92-1.12l-38.67-4.21s-.09,0-.13,0l-19.68,.35c-.55,0-1,.45-1.01,1Z"/>
        <path class="cls-3" d="M889.74,612.76s3.23,6.05,6.82,10.55c3.51,4.41,12.05,11.03,16.14,12.36"/>
        <path class="cls-56" d="M895.83,568.2c.12-.43-4.12,12.81-5.5,18.93-.24,1.06-1.29,1.44-1.97,.72-2.22-2.36-6.24-6.38-10.63-6.34-3.64,.03-5.64,2.02-5.64,2.02v-7.5s20.59-4.11,23.74-7.82Z"/>
        <g id="Hat-2" data-name="Hat">
          <path class="cls-41" d="M895.83,525.63s-14.58,5.83-19.16,17.49c-4.58,11.66-4.58,29.36-4.58,32.9,0,0,8.54,.62,11.87,0,3.33-.62,7.29-4.16,7.29-4.16,0,0,33.94,7.22,55.8,4.44s25.4-5.28,25.4-5.28c0,0-10.62-8.75-19.16-10.41,0,0,.29-13.97-5.41-22.9-5.14-8.05-14.68-14.31-25.61-14.16,0,0-4.32-.87-12.87-.58-9.14,.31-13.57,2.66-13.57,2.66Z"/>
          <path class="cls-60" d="M920.85,560.32s-4.3-20.04-10.45-26.78c-5.1-5.6-14.58-7.91-14.58-7.91,0,0,11.75-15.84,26.44-2.08,5.73,5.37,15.04,21.82,15.86,35.73,0,0-10.83-.62-17.28,1.05Z"/>
          <path class="cls-41" d="M953.3,560.61c-42.84-6.22-62.05,11.24-62.05,11.24"/>
          <rect class="cls-60" x="932.76" y="521.34" width="7.26" height="12.15"/>
          <rect class="cls-60" x="886.36" y="524.34" width="7.26" height="12.15"/>
          <path class="cls-60" d="M872.09,576.02v-2.75s7.48,2.96,13.19-.52c7.17-4.37,20.88-12.88,45.2-15.31,11.42-1.14,22.73,.37,22.73,.37l.09,2.8s-10.23-1.34-23.19-.29c-21.47,1.74-38.87,11.53-38.87,11.53,0,0-4.33,3.81-7.29,4.16-3.71,.44-11.87,0-11.87,0Z"/>
        </g>
        <g id="Face-2" data-name="Face">
          <path class="cls-30" d="M913.9,590.46c0,1.54-1.57,2.88-3.02,2.88-1.61,0-2.89-1.42-2.89-3.04,0-1.98,1.31-3.44,3.13-3.37,1.82,.07,2.78,1.56,2.78,3.54Z"/>
          <path class="cls-15" d="M903.33,588.99s3.02-2.31,6.63-2.11,5.52,1.68,5.52,1.68"/>
          <path class="cls-15" d="M901.09,583.52s3.8-3.97,7.27-3.96,7.76,2.69,7.76,2.69"/>
          <path class="cls-30" d="M935.36,591.39c.07,1.98,1.35,2.79,2.88,2.73,1.53-.06,2.74-.97,2.67-2.94-.07-1.98-1.38-3.53-2.91-3.47-1.53,.06-2.71,1.71-2.64,3.68Z"/>
          <path class="cls-15" d="M944.59,589.82s-2.57-2.33-5.61-2.15-4.65,1.64-4.65,1.64"/>
          <path class="cls-15" d="M946.44,584.36s-3.23-3.99-6.16-4.01-6.53,2.64-6.53,2.64"/>
          <path class="cls-15" d="M925.23,590.46s6.24,14.85,2.34,16.99c-2.19,1.2-3.58-.55-3.58-.55"/>
          <path class="cls-15" d="M912.01,615s1.61,2.73,5.67,4.16c5.47,1.93,10.77-1.5,10.77-1.5"/>
          <path class="cls-3" d="M879.9,585.47s-4.21,2.05-4.29,5.34c-.09,3.3,1.8,6.56,1.8,6.56"/>
        </g>
        <circle class="cls-62" cx="1145.44" cy="1160.42" r="23.8"/>
        <path class="cls-36" d="M1111.62,1099.96s20.96,56.84,27,62.53c6.04,5.68,10.66,0,10.66,0l-22.03-72.47-15.63,9.95Z"/>
        <path class="cls-48" d="M759.79,798.9s57.49,27.27,68.28,30.79c10.79,3.52,42.1,17.61,42.1,17.61,0,0-3.01,24.36-9.55,24.51-6.55,.14-39.09-6.75-56.25-17.01-17.16-10.26-48.29-36.79-49.18-38.56s4.6-17.34,4.6-17.34Z"/>
        <path class="cls-25" d="M809.77,821.87s25.13,12.23,52.08,21.75"/>
        <path class="cls-33" d="M779.6,787.58s-39.62,57.84-38.21,62.62,28.3,22.47,35.38,21.58c7.08-.88,40.69-55.9,40.69-55.9,0,0-32.9-28.66-37.85-28.3Z"/>
        <path class="cls-48" d="M779.6,787.58s-.18,29.54,2.83,32.9,35.02-4.6,35.02-4.6c0,0-31.13-27.42-37.85-28.3Z"/>
      </g>
    </g>
  </g>
</svg>